<svg viewBox="-1280 -684 2560 1368" width="2560" height="1368" style="background-color: rgb(255, 255, 255);" xmlns="http://www.w3.org/2000/svg">
    <path d="M-191.8500300963565,68.85902253665562L-241.5540287097657,66.82641019171975M-241.5540287097657,-124.23652199817128L-241.5540287097657,66.82641019171975M-241.5540287097657,66.82641019171975L-294.0404177441327,102.33373924202522M-191.8500300963565,-122.20390965323544L-191.8500300963565,68.85902253665562M-191.8500300963565,68.85902253665562L-244.33641913072353,104.36635158696106"
          style="fill:none;stroke:rgb(0,0,0);stroke-width:1;stroke-linecap:round"></path>
    <path d="M-191.85003009635653,68.85902253665562L-241.5540287097657,66.82641019171975L-241.5540287097657,-124.23652199817131zM-191.85003009635653,-122.20390965323544L-191.85003009635653,68.85902253665562L-241.5540287097657,-124.23652199817131z"
          style="fill:rgb(238,238,238); fill-opacity: 0.22"></path>
    <path d="M-191.8500300963565,-122.20390965323544L-241.5540287097657,-124.23652199817128M-241.5540287097657,-124.23652199817128L-294.0404177441327,-88.72919294786585M-191.8500300963565,-122.20390965323544L-244.33641913072353,-86.69658060292998M16.36370257709091,51.06129760664136L-109.07522188964703,45.93155526157008M-109.07522188964703,-81.44373870671478L-109.07522188964703,45.93155526157008M-109.07522188964703,45.93155526157008L-146.14111481413096,71.00683441158507"
          style="fill:none;stroke:rgb(0,0,0);stroke-width:1;stroke-linecap:round"></path>
    <path d="M-294.0404177441327,102.33373924202519L-241.5540287097657,66.82641019171975L-191.85003009635653,68.85902253665562zM16.363702577090898,51.06129760664136L-109.07522188964703,45.93155526157009L-109.07522188964703,-81.44373870671478zM-241.5540287097657,-124.23652199817131L-241.5540287097657,66.82641019171975L-294.0404177441327,-88.72919294786585z"
          style="fill:rgb(238,238,238); fill-opacity: 0.22"></path>
    <path d="M16.36370257709091,-76.3139963616435L-109.07522188964703,-81.44373870671478M-109.07522188964703,-81.44373870671478L-146.14111481413096,-56.36845955669978"
          style="fill:none;stroke:rgb(0,0,0);stroke-width:1;stroke-linecap:round"></path>
    <path d="M-244.33641913072353,104.36635158696106L-191.85003009635653,68.85902253665562L-191.85003009635653,-122.20390965323544z" style="fill:rgb(238,238,238); fill-opacity: 0.22"></path>
    <path d="M16.36370257709091,-76.3139963616435L16.36370257709091,51.06129760664136M16.36370257709091,51.06129760664136L-20.702190347393028,76.13657675665637" style="fill:none;stroke:rgb(0,0,0);stroke-width:1;stroke-linecap:round"></path>
    <path d="M16.3637025770909,-76.3139963616435L16.363702577090898,51.06129760664136L-109.07522188964703,-81.44373870671478zM-244.33641913072353,-86.69658060292998L-191.85003009635653,-122.20390965323544L-241.5540287097657,-124.23652199817131z"
          style="fill:rgb(238,238,238); fill-opacity: 0.22"></path>
    <path d="M16.36370257709091,-76.3139963616435L-20.70219034739302,-51.238717211628504" style="fill:none;stroke:rgb(0,0,0);stroke-width:1;stroke-linecap:round"></path>
    <path d="M-146.14111481413093,71.00683441158509L-109.07522188964703,45.93155526157009L16.363702577090898,51.06129760664136zM-109.07522188964703,-81.44373870671478L-109.07522188964703,45.93155526157009L-146.14111481413093,-56.368459556699776z"
          style="fill:rgb(238,238,238); fill-opacity: 0.22"></path>
    <path d="M-225.00993132420916,19.308224646178957L-274.71392993761833,17.275612301243093M-274.71392993761833,-56.22986947270334L-274.71392993761833,17.275612301243093M-274.71392993761833,17.275612301243093L-292.51158605262356,29.315823937556743M258.93494308621575,41.83171495911553L102.13628318812965,35.4195368513311M102.13628318812965,-46.89555352776603L102.13628318812965,35.4195368513311M102.13628318812965,35.4195368513311L74.49533771669414,54.118787536554926"
          style="fill:none;stroke:rgb(0,0,0);stroke-width:1;stroke-linecap:round"></path>
    <path d="M-244.33641913072353,104.36635158696106L-294.0404177441327,102.33373924202519L-191.85003009635653,68.85902253665562zM-241.5540287097657,66.82641019171975L-294.0404177441327,102.33373924202519L-294.0404177441327,-88.72919294786585z"
          style="fill:rgb(238,238,238); fill-opacity: 0.22"></path>
    <path d="M-225.00993132420916,19.308224646178953L-274.71392993761833,17.27561230124309L-274.71392993761833,-56.22986947270334z" style="fill:rgb(153,221,255); fill-opacity: 0.4"></path>
    <path d="M257.48827734534115,27.840102193588802L100.68961744725502,21.427924085804378M100.68961744725502,-6.136631579425532L100.68961744725502,21.427924085804378M100.68961744725502,21.427924085804378L94.01549640412807,25.943003449421997M-225.00993132420916,-54.19725712776748L-225.00993132420916,19.308224646178957M-225.00993132420916,19.308224646178957L-242.8075874392144,31.348436282492607M-225.00992854807888,-54.19725726984021L-225.00992854807888,19.30822450410622M-225.00992854807888,19.30822450410622L-242.80758360226113,31.348435422767345M-225.00992854807888,19.30822450410622L-138.77709779874883,-8.242736135413669"
          style="fill:none;stroke:rgb(0,0,0);stroke-width:1;stroke-linecap:round"></path>
    <path d="M-20.702190347393028,76.13657675665637L16.363702577090898,51.06129760664136L16.3637025770909,-76.3139963616435z" style="fill:rgb(238,238,238); fill-opacity: 0.22"></path>
    <path d="M487.18142772595263,33.011819866284L361.7425032592147,27.88207752121273M361.7425032592147,-35.80556946292971L361.7425032592147,27.88207752121273M361.7425032592147,27.88207752121273L309.4565461169071,63.25381330106346M-225.00993132420916,-54.19725712776748L-274.71392993761833,-56.22986947270334M-274.71392993761833,-56.22986947270334L-292.51158605262356,-44.18965783638969M257.48827734534115,0.2755465283588918L100.68961744725502,-6.136631579425532M100.68961744725502,-6.136631579425532L94.01549640412807,-1.621552215807912M258.93494308621575,-40.48337541998161L102.13628318812965,-46.89555352776603M102.13628318812965,-46.89555352776603L74.49533771669414,-28.196302842542224"
          style="fill:none;stroke:rgb(0,0,0);stroke-width:1;stroke-linecap:round"></path>
    <path d="M-225.00993132420916,-54.19725712776748L-225.00993132420916,19.308224646178953L-274.71392993761833,-56.22986947270334z" style="fill:rgb(153,221,255); fill-opacity: 0.4"></path>
    <path d="M-20.702190347393028,-51.238717211628504L16.3637025770909,-76.3139963616435L-109.07522188964703,-81.44373870671478zM258.93494308621575,41.83171495911553L102.13628318812962,35.4195368513311L102.13628318812964,-46.89555352776603z"
          style="fill:rgb(238,238,238); fill-opacity: 0.22"></path>
    <path d="M100.68961744725499,-6.136631579425536L100.68961744725499,21.427924085804378L94.01549640412803,-1.6215522158079152zM257.48827734534115,27.840102193588805L100.68961744725499,21.427924085804378L100.68961744725499,-6.136631579425536z"
          style="fill:rgb(153,221,255); fill-opacity: 0.4"></path>
    <path d="M487.18142772595263,-30.67582711785843L361.7425032592147,-35.80556946292971M361.7425032592147,-35.80556946292971L309.4565461169071,-0.4338336830789702M-5.336190917043897,-0.5589968043316487L-130.77511538378184,-5.688739149402919M-130.77511538378184,-42.441480036376134L-130.77511538378184,-5.688739149402919M-130.77511538378184,-5.688739149402919L-139.67394344128445,0.33136666875390763M-225.00993132420916,-54.19725712776748L-242.8075874392144,-42.15704549145383M-225.00992854807888,-54.19725726984021L-242.80758360226113,-42.1570463511791M-225.00992854807888,-54.19725726984021L-138.77709779874883,-8.242736135413669"
          style="fill:none;stroke:rgb(0,0,0);stroke-width:1;stroke-linecap:round"></path>
    <path d="M487.18142772595263,33.011819866284L361.7425032592147,27.882077521212732L361.7425032592147,-35.805569462929704z" style="fill:rgb(238,238,238); fill-opacity: 0.22"></path>
    <path d="M-292.51158605262356,29.315823937556754L-274.71392993761833,17.27561230124309L-225.00993132420916,19.308224646178953zM100.68961744725499,21.427924085804378L94.01549640412803,25.943003449421997L94.01549640412803,-1.6215522158079152z"
          style="fill:rgb(153,221,255); fill-opacity: 0.4"></path>
    <path d="M-244.33641913072353,-86.69658060292998L-244.33641913072353,104.36635158696106L-191.85003009635653,-122.20390965323544z" style="fill:rgb(238,238,238); fill-opacity: 0.22"></path>
    <path d="M-5.336190917043897,-37.31173769130486L-130.77511538378184,-42.441480036376134M-130.77511538378184,-42.441480036376134L-139.67394344128445,-36.421374218219306"
          style="fill:none;stroke:rgb(0,0,0);stroke-width:1;stroke-linecap:round"></path>
    <path d="M94.01549640412803,25.943003449421997L100.68961744725499,21.427924085804378L257.48827734534115,27.840102193588805z" style="fill:rgb(153,221,255); fill-opacity: 0.4"></path>
    <path d="M-225.00993177288134,19.3082246278308L-225.00993177288134,-54.19725714611563L-138.77710086827437,-8.242736681156055z" style="fill:rgb(255,187,187); fill-opacity: 0.4"></path>
    <path d="M-109.07522188964703,45.93155526157009L-146.14111481413093,71.00683441158509L-146.14111481413093,-56.368459556699776zM-294.0404177441327,-88.72919294786585L-244.33641913072353,-86.69658060292998L-241.5540287097657,-124.23652199817131z"
          style="fill:rgb(238,238,238); fill-opacity: 0.22"></path>
    <path d="M-274.71392993761833,-56.22986947270334L-274.71392993761833,17.27561230124309L-292.51158605262356,-44.18965783638968z" style="fill:rgb(153,221,255); fill-opacity: 0.4"></path>
    <path d="M258.93494308621575,-40.48337541998161L258.93494308621575,41.83171495911553L102.13628318812964,-46.89555352776603z" style="fill:rgb(238,238,238); fill-opacity: 0.22"></path>
    <path d="M94.01549640412807,-1.621552215807912L94.01549640412807,25.943003449421997M94.01549640412807,25.943003449421997L250.81415630221417,32.35518155720642"
          style="fill:none;stroke:rgb(0,0,0);stroke-width:1;stroke-linecap:round"></path>
    <path d="M-5.336190917043902,-0.5589968043316473L-130.77511538378184,-5.688739149402919L-130.77511538378184,-42.441480036376134zM257.48827734534115,0.2755465283588896L257.48827734534115,27.840102193588805L100.68961744725499,-6.136631579425536z"
          style="fill:rgb(153,221,255); fill-opacity: 0.4"></path>
    <path d="M258.93494308621575,-40.48337541998161L258.93494308621575,41.83171495911553M258.93494308621575,41.83171495911553L231.29399761478027,60.53096564433935"
          style="fill:none;stroke:rgb(0,0,0);stroke-width:1;stroke-linecap:round"></path>
    <path d="M-130.77511538378184,-42.441480036376134L-130.77511538378184,-5.688739149402919L-139.67394344128442,-36.4213742182193z" style="fill:rgb(153,221,255); fill-opacity: 0.4"></path>
    <path d="M487.18142772595263,-30.67582711785843L487.18142772595263,33.011819866284L361.7425032592147,-35.805569462929704z" style="fill:rgb(238,238,238); fill-opacity: 0.22"></path>
    <path d="M94.01549640412807,-1.621552215807912L250.81415630221417,4.7906258919765135" style="fill:none;stroke:rgb(0,0,0);stroke-width:1;stroke-linecap:round"></path>
    <path d="M-225.00993177288134,-54.19725714611563L-225.00993177288134,19.3082246278308L-242.80758788788657,31.348436264144457z" style="fill:rgb(255,187,187); fill-opacity: 0.4"></path>
    <path d="M-242.8075874392144,31.348436282492617L-225.00993132420916,19.308224646178953L-225.00993132420916,-54.19725712776748z" style="fill:rgb(153,221,255); fill-opacity: 0.4"></path>
    <path d="M487.18142772595263,-30.67582711785843L487.18142772595263,33.011819866284M487.18142772595263,33.011819866284L434.895470583645,68.38355564613474" style="fill:none;stroke:rgb(0,0,0);stroke-width:1;stroke-linecap:round"></path>
    <path d="M94.01549640412803,-1.6215522158079152L250.81415630221417,4.79062589197651L100.68961744725499,-6.136631579425536zM-242.8075874392144,-42.157045491453815L-225.00993132420916,-54.19725712776748L-274.71392993761833,-56.22986947270334z"
          style="fill:rgb(153,221,255); fill-opacity: 0.4"></path>
    <path d="M-20.702190347393028,76.13657675665637L-146.14111481413093,71.00683441158509L16.363702577090898,51.06129760664136z" style="fill:rgb(238,238,238); fill-opacity: 0.22"></path>
    <path d="M-139.67394344128445,0.3313666687539108L-130.77511538378184,-5.688739149402919L-5.336190917043902,-0.5589968043316473z" style="fill:rgb(153,221,255); fill-opacity: 0.4"></path>
    <path d="M102.13628318812964,-46.89555352776603L102.13628318812962,35.4195368513311L74.49533771669411,-28.196302842542224z" style="fill:rgb(238,238,238); fill-opacity: 0.22"></path>
    <path d="M257.48827734534115,0.2755465283588918L257.48827734534115,27.840102193588802M257.48827734534115,27.840102193588802L250.81415630221417,32.35518155720642M257.4882836739378,0.275546621913917L257.4882836739378,27.84010297171698M257.4882836739378,27.84010297171698L250.81416263081084,32.3551823353346M257.4882836739378,27.84010297171698L352.6935378496893,34.70299190376291"
          style="fill:none;stroke:rgb(0,0,0);stroke-width:1;stroke-linecap:round"></path>
    <path d="M250.81415630221417,4.79062589197651L257.48827734534115,0.2755465283588896L100.68961744725499,-6.136631579425536zM-5.336190917043901,-37.31173769130486L-5.336190917043902,-0.5589968043316473L-130.77511538378184,-42.441480036376134z"
          style="fill:rgb(153,221,255); fill-opacity: 0.4"></path>
    <path d="M257.4882836739378,0.275546621913917L352.6935378496893,34.70299190376291M250.81416263081084,32.3551823353346L352.6935378496893,34.70299190376291M250.81416263081084,4.7906259855315385L352.6935378496893,34.70299190376291"
          style="fill:none;stroke:rgb(0,0,0);stroke-width:1;stroke-linecap:round"></path>
    <path d="M257.4882749725808,27.840102096556333L257.4882749725808,0.2755464313264162L352.6935470329946,34.70299163669419z" style="fill:rgb(255,187,187); fill-opacity: 0.4"></path>
    <path d="M-130.77511538378184,-5.688739149402919L-139.67394344128445,0.3313666687539108L-139.67394344128442,-36.4213742182193z" style="fill:rgb(153,221,255); fill-opacity: 0.4"></path>
    <path d="M74.49533771669411,54.118787536554926L102.13628318812962,35.4195368513311L258.93494308621575,41.83171495911553z" style="fill:rgb(238,238,238); fill-opacity: 0.22"></path>
    <path d="M-242.80758788788657,31.348436264144457L-225.00993177288134,19.3082246278308L-138.77710086827437,-8.242736681156055z" style="fill:rgb(255,187,187); fill-opacity: 0.4"></path>
    <path d="M94.01549640412803,-1.6215522158079152L94.01549640412803,25.943003449421997L250.81415630221417,4.79062589197651z" style="fill:rgb(153,221,255); fill-opacity: 0.4"></path>
    <path d="M257.48827734534115,0.2755465283588918L250.81415630221417,4.7906258919765135M257.4882836739378,0.275546621913917L250.81416263081084,4.7906259855315385"
          style="fill:none;stroke:rgb(0,0,0);stroke-width:1;stroke-linecap:round"></path>
    <path d="M250.81415630221417,32.35518155720643L94.01549640412803,25.943003449421997L257.48827734534115,27.840102193588805zM-274.71392993761833,17.27561230124309L-292.51158605262356,29.315823937556754L-292.51158605262356,-44.18965783638968z"
          style="fill:rgb(153,221,255); fill-opacity: 0.4"></path>
    <path d="M258.93494308621575,-40.48337541998161L231.29399761478027,-21.7841247347578M487.18142772595263,-30.67582711785843L434.895470583645,4.6959086619923M-5.336191066440849,-37.3117367398704L-5.3361910664408505,-0.5589969482142181M-5.3361910664408505,-0.5589969482142181L-14.235019123943465,5.461108869942609M-5.3361910664408505,-0.5589969482142181L82.63610935980924,-11.357326535382036M-5.336190917043897,-37.31173769130486L-5.336190917043897,-0.5589968043316487M-5.336190917043897,-0.5589968043316487L-14.23501897454651,5.461109013825178"
          style="fill:none;stroke:rgb(0,0,0);stroke-width:1;stroke-linecap:round"></path>
    <path d="M-242.8075874392144,31.348436282492617L-292.51158605262356,29.315823937556754L-225.00993132420916,19.308224646178953z" style="fill:rgb(153,221,255); fill-opacity: 0.4"></path>
    <path d="M-146.14111481413093,-56.368459556699776L-20.702190347393028,-51.238717211628504L-109.07522188964703,-81.44373870671478z" style="fill:rgb(238,238,238); fill-opacity: 0.22"></path>
    <path d="M250.81415392945385,32.35518146017395L257.4882749725808,27.840102096556333L352.6935470329946,34.70299163669419z" style="fill:rgb(255,187,187); fill-opacity: 0.4"></path>
    <path d="M-242.80758360226113,31.348435422767345L-138.77709779874883,-8.242736135413669M-242.80758360226113,-42.1570463511791L-138.77709779874883,-8.242736135413669"
          style="fill:none;stroke:rgb(0,0,0);stroke-width:1;stroke-linecap:round"></path>
    <path d="M257.4882749725808,0.2755464313264162L257.4882749725808,27.840102096556333L250.81415392945385,32.35518146017395z" style="fill:rgb(255,187,187); fill-opacity: 0.4"></path>
    <path d="M250.81415630221417,32.35518155720643L257.48827734534115,27.840102193588805L257.48827734534115,0.2755465283588896z" style="fill:rgb(153,221,255); fill-opacity: 0.4"></path>
    <path d="M-225.00993177288134,-54.19725714611563L-242.80758788788657,-42.157045509801975L-138.77710086827437,-8.242736681156055z" style="fill:rgb(255,187,187); fill-opacity: 0.4"></path>
    <path d="M-139.67394344128445,-36.421374218219306L-139.67394344128445,0.33136666875390763M-139.67394344128445,0.33136666875390763L-14.23501897454651,5.461109013825178"
          style="fill:none;stroke:rgb(0,0,0);stroke-width:1;stroke-linecap:round"></path>
    <path d="M257.4882749725808,0.2755464313264162L250.81415392945385,4.790625794944036L352.6935470329946,34.70299163669419z" style="fill:rgb(255,187,187); fill-opacity: 0.4"></path>
    <path d="M-5.336191066440849,-37.3117367398704L-14.235019123943463,-31.291630921713566M-5.336191066440849,-37.3117367398704L82.63610935980924,-11.357326535382036M-5.336190917043897,-37.31173769130486L-14.23501897454651,-31.291631873148038"
          style="fill:none;stroke:rgb(0,0,0);stroke-width:1;stroke-linecap:round"></path>
    <path d="M-14.235018974546513,-31.291631873148027L-5.336190917043901,-37.31173769130486L-130.77511538378184,-42.441480036376134zM94.01549640412803,25.943003449421997L250.81415630221417,32.35518155720643L250.81415630221417,4.79062589197651zM-139.67394344128442,-36.4213742182193L-14.235018974546513,-31.291631873148027L-130.77511538378184,-42.441480036376134zM-292.51158605262356,-44.18965783638968L-242.8075874392144,-42.157045491453815L-274.71392993761833,-56.22986947270334z"
          style="fill:rgb(153,221,255); fill-opacity: 0.4"></path>
    <path d="M-139.67394344128445,-36.421374218219306L-14.23501897454651,-31.291631873148038M-294.0404177441327,-88.72919294786585L-294.0404177441327,102.33373924202522M-294.0404177441327,102.33373924202522L-244.33641913072353,104.36635158696106"
          style="fill:none;stroke:rgb(0,0,0);stroke-width:1;stroke-linecap:round"></path>
    <path d="M250.81415392945385,4.790625794944036L250.81415392945385,32.35518146017395L352.6935470329946,34.70299163669419zM-5.336191089386656,-0.5589968113794909L-5.336191089386654,-37.3117376983527L82.63610553560191,-11.357326905482024z"
          style="fill:rgb(255,187,187); fill-opacity: 0.4"></path>
    <path d="M-14.235018974546517,5.461109013825181L-139.67394344128445,0.3313666687539108L-5.336190917043902,-0.5589968043316473z" style="fill:rgb(153,221,255); fill-opacity: 0.4"></path>
    <path d="M257.4882749725808,0.2755464313264162L250.81415392945385,32.35518146017395L250.81415392945385,4.790625794944036z" style="fill:rgb(255,187,187); fill-opacity: 0.4"></path>
    <path d="M250.81415630221417,4.79062589197651L250.81415630221417,32.35518155720643L257.48827734534115,0.2755465283588896z" style="fill:rgb(153,221,255); fill-opacity: 0.4"></path>
    <path d="M-5.336191089386654,-37.3117376983527L-5.336191089386656,-0.5589968113794909L-14.23501914688927,5.461109006777337z" style="fill:rgb(255,187,187); fill-opacity: 0.4"></path>
    <path d="M-14.235018974546517,5.461109013825181L-5.336190917043902,-0.5589968043316473L-5.336190917043901,-37.31173769130486z" style="fill:rgb(153,221,255); fill-opacity: 0.4"></path>
    <path d="M-225.00993177288134,-54.19725714611563L-242.80758788788657,31.348436264144457L-242.80758788788657,-42.157045509801975z" style="fill:rgb(255,187,187); fill-opacity: 0.4"></path>
    <path d="M-242.8075874392144,-42.157045491453815L-242.8075874392144,31.348436282492617L-225.00993132420916,-54.19725712776748z" style="fill:rgb(153,221,255); fill-opacity: 0.4"></path>
    <path d="M-20.702190347393028,-51.238717211628504L-20.702190347393028,76.13657675665637L16.3637025770909,-76.3139963616435z" style="fill:rgb(238,238,238); fill-opacity: 0.22"></path>
    <path d="M-292.51158605262356,-44.18965783638969L-292.51158605262356,29.315823937556743M-292.51158605262356,29.315823937556743L-242.8075874392144,31.348436282492607M250.81415630221417,4.7906258919765135L250.81415630221417,32.35518155720642M250.81416263081084,32.3551823353346L250.81416263081084,4.7906259855315385"
          style="fill:none;stroke:rgb(0,0,0);stroke-width:1;stroke-linecap:round"></path>
    <path d="M-139.67394344128442,-36.4213742182193L-139.67394344128445,0.3313666687539108L-14.235018974546513,-31.291631873148027z" style="fill:rgb(153,221,255); fill-opacity: 0.4"></path>
    <path d="M-146.14111481413096,-56.36845955669978L-146.14111481413096,71.00683441158507M-146.14111481413096,71.00683441158507L-20.702190347393028,76.13657675665637"
          style="fill:none;stroke:rgb(0,0,0);stroke-width:1;stroke-linecap:round"></path>
    <path d="M231.29399761478027,-21.7841247347578L258.93494308621575,-40.48337541998161L102.13628318812964,-46.89555352776603z" style="fill:rgb(238,238,238); fill-opacity: 0.22"></path>
    <path d="M-14.23501914688927,5.461109006777337L-5.336191089386656,-0.5589968113794909L82.63610553560191,-11.357326905482024z" style="fill:rgb(255,187,187); fill-opacity: 0.4"></path>
    <path d="M-244.33641913072353,-86.69658060292998L-244.33641913072353,104.36635158696106" style="fill:none;stroke:rgb(0,0,0);stroke-width:1;stroke-linecap:round"></path>
    <path d="M-242.80758788788657,-42.157045509801975L-242.80758788788657,31.348436264144457L-138.77710086827437,-8.242736681156055z" style="fill:rgb(255,187,187); fill-opacity: 0.4"></path>
    <path d="M102.13628318812962,35.4195368513311L74.49533771669411,54.118787536554926L74.49533771669411,-28.196302842542224zM231.29399761478027,60.53096564433935L258.93494308621575,41.83171495911553L258.93494308621575,-40.48337541998161z"
          style="fill:rgb(238,238,238); fill-opacity: 0.22"></path>
    <path d="M-5.336191089386654,-37.3117376983527L-14.235019146889268,-31.29163188019587L82.63610553560191,-11.357326905482024z" style="fill:rgb(255,187,187); fill-opacity: 0.4"></path>
    <path d="M-139.67394344128445,0.3313666687539108L-14.235018974546517,5.461109013825181L-14.235018974546513,-31.291631873148027z" style="fill:rgb(153,221,255); fill-opacity: 0.4"></path>
    <path d="M-5.336191089386654,-37.3117376983527L-14.23501914688927,5.461109006777337L-14.235019146889268,-31.29163188019587z" style="fill:rgb(255,187,187); fill-opacity: 0.4"></path>
    <path d="M-14.235018974546513,-31.291631873148027L-14.235018974546517,5.461109013825181L-5.336190917043901,-37.31173769130486z" style="fill:rgb(153,221,255); fill-opacity: 0.4"></path>
    <path d="M-242.80758360226113,31.348435422767345L-242.80758360226113,-42.1570463511791M-242.8075874392144,-42.15704549145383L-242.8075874392144,31.348436282492607"
          style="fill:none;stroke:rgb(0,0,0);stroke-width:1;stroke-linecap:round"></path>
    <path d="M-292.51158605262356,29.315823937556754L-242.8075874392144,31.348436282492617L-242.8075874392144,-42.157045491453815zM-292.51158605262356,-44.18965783638968L-292.51158605262356,29.315823937556754L-242.8075874392144,-42.157045491453815z"
          style="fill:rgb(153,221,255); fill-opacity: 0.4"></path>
    <path d="M-292.51158605262356,-44.18965783638969L-242.8075874392144,-42.15704549145383" style="fill:none;stroke:rgb(0,0,0);stroke-width:1;stroke-linecap:round"></path>
    <path d="M-294.0404177441327,102.33373924202519L-244.33641913072353,104.36635158696106L-244.33641913072353,-86.69658060292998z" style="fill:rgb(238,238,238); fill-opacity: 0.22"></path>
    <path d="M-14.235019123943465,5.461108869942609L82.63610935980924,-11.357326535382036M-14.235019123943463,-31.291630921713566L82.63610935980924,-11.357326535382036"
          style="fill:none;stroke:rgb(0,0,0);stroke-width:1;stroke-linecap:round"></path>
    <path d="M361.7425032592147,-35.805569462929704L361.7425032592147,27.882077521212732L309.4565461169071,-0.43383368307897z" style="fill:rgb(238,238,238); fill-opacity: 0.22"></path>
    <path d="M-14.235019123943465,5.461108869942609L-14.235019123943463,-31.291630921713566M-14.23501897454651,-31.291631873148038L-14.23501897454651,5.461109013825178"
          style="fill:none;stroke:rgb(0,0,0);stroke-width:1;stroke-linecap:round"></path>
    <path d="M-294.0404177441327,-88.72919294786585L-294.0404177441327,102.33373924202519L-244.33641913072353,-86.69658060292998z" style="fill:rgb(238,238,238); fill-opacity: 0.22"></path>
    <path d="M-14.235019146889268,-31.29163188019587L-14.23501914688927,5.461109006777337L82.63610553560191,-11.357326905482024z" style="fill:rgb(255,187,187); fill-opacity: 0.4"></path>
    <path d="M309.4565461169071,63.25381330106346L361.7425032592147,27.882077521212732L487.18142772595263,33.011819866284z" style="fill:rgb(238,238,238); fill-opacity: 0.22"></path>
    <path d="M-146.14111481413096,-56.36845955669978L-20.70219034739302,-51.238717211628504M-294.0404177441327,-88.72919294786585L-244.33641913072353,-86.69658060292998"
          style="fill:none;stroke:rgb(0,0,0);stroke-width:1;stroke-linecap:round"></path>
    <path d="M-146.14111481413093,-56.368459556699776L-146.14111481413093,71.00683441158509L-20.702190347393028,-51.238717211628504zM231.29399761478027,60.53096564433935L74.49533771669411,54.118787536554926L258.93494308621575,41.83171495911553zM74.49533771669411,-28.196302842542224L231.29399761478027,-21.7841247347578L102.13628318812964,-46.89555352776603zM-146.14111481413093,71.00683441158509L-20.702190347393028,76.13657675665637L-20.702190347393028,-51.238717211628504z"
          style="fill:rgb(238,238,238); fill-opacity: 0.22"></path>
    <path d="M-20.70219034739302,-51.238717211628504L-20.702190347393028,76.13657675665637M74.49533771669414,-28.196302842542224L74.49533771669414,54.118787536554926M74.49533771669414,54.118787536554926L231.29399761478027,60.53096564433935"
          style="fill:none;stroke:rgb(0,0,0);stroke-width:1;stroke-linecap:round"></path>
    <path d="M434.895470583645,4.695908661992303L487.18142772595263,-30.67582711785843L361.7425032592147,-35.805569462929704zM434.895470583645,68.38355564613474L487.18142772595263,33.011819866284L487.18142772595263,-30.67582711785843zM231.29399761478027,-21.7841247347578L231.29399761478027,60.53096564433935L258.93494308621575,-40.48337541998161z"
          style="fill:rgb(238,238,238); fill-opacity: 0.22"></path>
    <path d="M74.49533771669414,-28.196302842542224L231.29399761478027,-21.7841247347578" style="fill:none;stroke:rgb(0,0,0);stroke-width:1;stroke-linecap:round"></path>
    <path d="M74.49533771669411,-28.196302842542224L74.49533771669411,54.118787536554926L231.29399761478027,-21.7841247347578zM74.49533771669411,54.118787536554926L231.29399761478027,60.53096564433935L231.29399761478027,-21.7841247347578z"
          style="fill:rgb(238,238,238); fill-opacity: 0.22"></path>
    <path d="M231.29399761478027,-21.7841247347578L231.29399761478027,60.53096564433935M602.4182259510366,101.47939334850221L571.0584948343521,100.1969577622344M571.0584948343521,-59.022164079389825L571.0584948343521,100.1969577622344M571.0584948343521,100.1969577622344L563.3482478402335,105.41298199472709"
          style="fill:none;stroke:rgb(0,0,0);stroke-width:1;stroke-linecap:round"></path>
    <path d="M361.7425032592147,27.882077521212732L309.4565461169071,63.25381330106346L309.4565461169071,-0.43383368307897z" style="fill:rgb(238,238,238); fill-opacity: 0.22"></path>
    <path d="M602.4182259510366,-57.739728493122016L602.4182259510366,101.47939334850221M602.4182259510366,101.47939334850221L594.707978956918,106.6954175809949M481.24256734184587,19.68009839401067L532.5174329086899,21.776950310226045"
          style="fill:none;stroke:rgb(0,0,0);stroke-width:1;stroke-linecap:round"></path>
    <path d="M602.4182259510366,101.47939334850221L571.0584948343521,100.19695776223439L571.0584948343521,-59.02216407938983zM563.3482478402335,105.41298199472706L571.0584948343521,100.19695776223439L602.4182259510366,101.47939334850221zM434.895470583645,68.38355564613474L309.4565461169071,63.25381330106346L487.18142772595263,33.011819866284zM602.4182259510366,-57.73972849312201L602.4182259510366,101.47939334850221L571.0584948343521,-59.02216407938983zM309.4565461169071,-0.43383368307897L434.895470583645,4.695908661992303L361.7425032592147,-35.805569462929704z"
          style="fill:rgb(238,238,238); fill-opacity: 0.22"></path>
    <path d="M534.1519953527483,11.379412298903759L530.8828704646315,13.590993153378205L562.6791185362453,23.010392613882154zM529.8726552141482,27.115288696322956L532.5174329086899,33.26218183740518L562.6791185362453,23.010392613882154z"
          style="fill:rgb(0,0,0)"></path>
    <path d="M594.707978956918,106.6954175809949L563.3482478402335,105.41298199472706L602.4182259510366,101.47939334850221z" style="fill:rgb(238,238,238); fill-opacity: 0.22"></path>
    <path d="M602.4182259510366,-57.739728493122016L571.0584948343521,-59.022164079389825M571.0584948343521,-59.022164079389825L563.3482478402335,-53.80613984689714"
          style="fill:none;stroke:rgb(0,0,0);stroke-width:1;stroke-linecap:round"></path>
    <path d="M594.707978956918,106.6954175809949L602.4182259510366,101.47939334850221L602.4182259510366,-57.73972849312201zM571.0584948343521,-59.02216407938983L571.0584948343521,100.19695776223439L563.3482478402335,-53.80613984689715z"
          style="fill:rgb(238,238,238); fill-opacity: 0.22"></path>
    <path d="M530.8828704646315,13.590993153378205L529.8726552141482,27.115288696322956L562.6791185362453,23.010392613882154z" style="fill:rgb(0,0,0)"></path>
    <path d="M724.2630138642157,106.46215584221444L692.9032827475312,105.17972025594663M692.9032827475312,-54.03940158567759L692.9032827475312,105.17972025594663M692.9032827475312,105.17972025594663L685.1930357534126,110.39574448843932"
          style="fill:none;stroke:rgb(0,0,0);stroke-width:1;stroke-linecap:round"></path>
    <path d="M571.0584948343521,100.19695776223439L563.3482478402335,105.41298199472706L563.3482478402335,-53.80613984689715z" style="fill:rgb(238,238,238); fill-opacity: 0.22"></path>
    <path d="M563.3482478402335,-53.80613984689714L563.3482478402335,105.41298199472709M563.3482478402335,105.41298199472709L594.707978956918,106.6954175809949M602.4182259510366,-57.739728493122016L594.707978956918,-52.52370426062933M724.2630138642157,-52.75696599940978L724.2630138642157,106.46215584221444M724.2630138642157,106.46215584221444L716.552766870097,111.67818007470713M603.0873552550248,24.6628608877229L654.3622208218688,26.759712803938278M594.707978956918,-52.52370426062933L594.707978956918,106.6954175809949"
          style="fill:none;stroke:rgb(0,0,0);stroke-width:1;stroke-linecap:round"></path>
    <path d="M434.895470583645,4.695908661992303L434.895470583645,68.38355564613474L487.18142772595263,-30.67582711785843zM724.2630138642157,106.46215584221443L692.9032827475312,105.17972025594662L692.9032827475312,-54.0394015856776zM594.707978956918,-52.52370426062932L602.4182259510366,-57.73972849312201L571.0584948343521,-59.02216407938983zM685.1930357534126,110.3957444884393L692.9032827475312,105.17972025594662L724.2630138642157,106.46215584221443zM563.3482478402335,105.41298199472706L594.707978956918,106.6954175809949L594.707978956918,-52.52370426062932zM594.707978956918,-52.52370426062932L594.707978956918,106.6954175809949L602.4182259510366,-57.73972849312201zM563.3482478402335,-53.80613984689715L594.707978956918,-52.52370426062932L571.0584948343521,-59.02216407938983zM563.3482478402335,-53.80613984689715L563.3482478402335,105.41298199472706L594.707978956918,-52.52370426062932zM724.2630138642157,-52.756965999409786L724.2630138642157,106.46215584221443L692.9032827475312,-54.0394015856776z"
          style="fill:rgb(238,238,238); fill-opacity: 0.22"></path>
    <path d="M655.9967832659272,16.362174792615985L652.7276583778105,18.57375564709043L684.5239064494242,27.99315510759438zM651.7174431273272,32.098051190035186L654.3622208218688,38.2449443311174L684.5239064494242,27.99315510759438z"
          style="fill:rgb(0,0,0)"></path>
    <path d="M716.552766870097,111.67818007470711L685.1930357534126,110.3957444884393L724.2630138642157,106.46215584221443z" style="fill:rgb(238,238,238); fill-opacity: 0.22"></path>
    <path d="M724.2630138642157,-52.75696599940978L692.9032827475312,-54.03940158567759M692.9032827475312,-54.03940158567759L685.1930357534126,-48.82337735318491"
          style="fill:none;stroke:rgb(0,0,0);stroke-width:1;stroke-linecap:round"></path>
    <path d="M716.552766870097,111.67818007470711L724.2630138642157,106.46215584221443L724.2630138642157,-52.756965999409786zM692.9032827475312,-54.0394015856776L692.9032827475312,105.17972025594662L685.1930357534126,-48.82337735318492z"
          style="fill:rgb(238,238,238); fill-opacity: 0.22"></path>
    <path d="M563.3482478402335,-53.80613984689714L594.707978956918,-52.52370426062933" style="fill:none;stroke:rgb(0,0,0);stroke-width:1;stroke-linecap:round"></path>
    <path d="M652.7276583778105,18.57375564709043L651.7174431273272,32.098051190035186L684.5239064494242,27.99315510759438z" style="fill:rgb(0,0,0)"></path>
    <path d="M692.9032827475312,105.17972025594662L685.1930357534126,110.3957444884393L685.1930357534126,-48.82337735318492z" style="fill:rgb(238,238,238); fill-opacity: 0.22"></path>
    <path d="M685.1930357534126,-48.82337735318491L685.1930357534126,110.39574448843932M685.1930357534126,110.39574448843932L716.552766870097,111.67818007470713M724.2630138642157,-52.75696599940978L716.552766870097,-47.5409417669171M846.1078017773947,68.80489221170534L814.7480706607103,67.52245662543753M814.7480706607103,-6.416612967744044L814.7480706607103,67.52245662543753M814.7480706607103,67.52245662543753L807.0378236665915,72.73848085793021M724.9321431682039,29.645623381435126L776.2070087350479,31.7424752976505M716.552766870097,-47.5409417669171L716.552766870097,111.67818007470713"
          style="fill:none;stroke:rgb(0,0,0);stroke-width:1;stroke-linecap:round"></path>
    <path d="M716.552766870097,-47.54094176691711L724.2630138642157,-52.756965999409786L692.9032827475312,-54.0394015856776z" style="fill:rgb(238,238,238); fill-opacity: 0.22"></path>
    <path d="M309.4565461169071,-0.4338336830789702L309.4565461169071,63.25381330106346M309.4565461169071,63.25381330106346L434.895470583645,68.38355564613474" style="fill:none;stroke:rgb(0,0,0);stroke-width:1;stroke-linecap:round"></path>
    <path d="M846.1078017773947,68.80489221170535L814.7480706607103,67.52245662543751L814.7480706607103,-6.416612967744046z" style="fill:rgb(238,238,238); fill-opacity: 0.22"></path>
    <path d="M846.1078017773947,-5.134177381476224L846.1078017773947,68.80489221170534M846.1078017773947,68.80489221170534L838.3975547832761,74.02091644419802" style="fill:none;stroke:rgb(0,0,0);stroke-width:1;stroke-linecap:round"></path>
    <path d="M685.1930357534126,110.3957444884393L716.552766870097,111.67818007470711L716.552766870097,-47.54094176691711zM716.552766870097,-47.54094176691711L716.552766870097,111.67818007470711L724.2630138642157,-52.756965999409786z"
          style="fill:rgb(238,238,238); fill-opacity: 0.22"></path>
    <path d="M846.1078017773947,-5.134177381476224L814.7480706607103,-6.416612967744044M814.7480706607103,-6.416612967744044L807.0378236665915,-1.2005887352513611"
          style="fill:none;stroke:rgb(0,0,0);stroke-width:1;stroke-linecap:round"></path>
    <path d="M807.0378236665915,72.7384808579302L814.7480706607103,67.52245662543751L846.1078017773947,68.80489221170535zM685.1930357534126,-48.82337735318492L716.552766870097,-47.54094176691711L692.9032827475312,-54.0394015856776zM846.1078017773947,-5.134177381476226L846.1078017773947,68.80489221170535L814.7480706607103,-6.416612967744046zM685.1930357534126,-48.82337735318492L685.1930357534126,110.3957444884393L716.552766870097,-47.54094176691711z"
          style="fill:rgb(238,238,238); fill-opacity: 0.22"></path>
    <path d="M309.4565461169071,-0.4338336830789702L434.895470583645,4.6959086619923" style="fill:none;stroke:rgb(0,0,0);stroke-width:1;stroke-linecap:round"></path>
    <path d="M777.8415711791064,21.344937286328214L774.5724462909897,23.556518140802662L806.3686943626033,32.975917601306605zM773.5622310405064,37.080813683747415L776.207008735048,43.22770682482963L806.3686943626033,32.975917601306605z"
          style="fill:rgb(0,0,0)"></path>
    <path d="M814.7480706607103,-6.416612967744046L814.7480706607103,67.52245662543751L807.0378236665915,-1.2005887352513633z" style="fill:rgb(238,238,238); fill-opacity: 0.22"></path>
    <path d="M846.1078017773947,-5.134177381476224L838.3975547832761,0.08184685101645897M685.1930357534126,-48.82337735318491L716.552766870097,-47.5409417669171"
          style="fill:none;stroke:rgb(0,0,0);stroke-width:1;stroke-linecap:round"></path>
    <path d="M774.5724462909897,23.556518140802662L773.5622310405064,37.080813683747415L806.3686943626033,32.975917601306605z" style="fill:rgb(0,0,0)"></path>
    <path d="M838.3975547832761,74.02091644419804L846.1078017773947,68.80489221170535L846.1078017773947,-5.134177381476226zM309.4565461169071,-0.43383368307897L309.4565461169071,63.25381330106346L434.895470583645,4.695908661992303zM814.7480706607103,67.52245662543751L807.0378236665915,72.7384808579302L807.0378236665915,-1.2005887352513633zM838.3975547832761,74.02091644419804L807.0378236665915,72.7384808579302L846.1078017773947,68.80489221170535zM838.3975547832761,0.08184685101645678L846.1078017773947,-5.134177381476226L814.7480706607103,-6.416612967744046zM309.4565461169071,63.25381330106346L434.895470583645,68.38355564613474L434.895470583645,4.695908661992303z"
          style="fill:rgb(238,238,238); fill-opacity: 0.22"></path>
    <path d="M807.0378236665915,-1.2005887352513611L807.0378236665915,72.73848085793021M807.0378236665915,72.73848085793021L838.3975547832761,74.02091644419802" style="fill:none;stroke:rgb(0,0,0);stroke-width:1;stroke-linecap:round"></path>
    <path d="M807.0378236665915,-1.2005887352513633L838.3975547832761,0.08184685101645678L814.7480706607103,-6.416612967744046z" style="fill:rgb(238,238,238); fill-opacity: 0.22"></path>
    <path d="M434.895470583645,4.6959086619923L434.895470583645,68.38355564613474" style="fill:none;stroke:rgb(0,0,0);stroke-width:1;stroke-linecap:round"></path>
    <path d="M838.3975547832761,0.08184685101645678L838.3975547832761,74.02091644419804L846.1078017773947,-5.134177381476226z" style="fill:rgb(238,238,238); fill-opacity: 0.22"></path>
    <path d="M838.3975547832761,0.08184685101645897L838.3975547832761,74.02091644419802" style="fill:none;stroke:rgb(0,0,0);stroke-width:1;stroke-linecap:round"></path>
    <path d="M807.0378236665915,72.7384808579302L838.3975547832761,74.02091644419804L838.3975547832761,0.08184685101645678zM807.0378236665915,-1.2005887352513633L807.0378236665915,72.7384808579302L838.3975547832761,0.08184685101645678z"
          style="fill:rgb(238,238,238); fill-opacity: 0.22"></path>
    <path d="M807.0378236665915,-1.2005887352513611L838.3975547832761,0.08184685101645897" style="fill:none;stroke:rgb(0,0,0);stroke-width:1;stroke-linecap:round"></path>
</svg>